<?xml version="1.0" encoding="UTF-8" standalone="no"?>
<!-- Created with Inkscape (http://www.inkscape.org/) -->

<svg
   xmlns:dc="http://purl.org/dc/elements/1.1/"
   xmlns:cc="http://creativecommons.org/ns#"
   xmlns:rdf="http://www.w3.org/1999/02/22-rdf-syntax-ns#"
   xmlns:svg="http://www.w3.org/2000/svg"
   xmlns="http://www.w3.org/2000/svg"
   xmlns:sodipodi="http://sodipodi.sourceforge.net/DTD/sodipodi-0.dtd"
   xmlns:inkscape="http://www.inkscape.org/namespaces/inkscape"
   width="261"
   height="155"
   viewBox="0 0 69.056248 41.010418"
   version="1.1"
   id="svg17433"
   inkscape:version="0.92.3 (2405546, 2018-03-11)"
   sodipodi:docname="placeholder-organization.svg"
   inkscape:export-filename="/home/paul/repos/DCOR/ckanext-dcor_theme/ckanext/dcor_theme/public/base/images/placeholder-organization.png"
   inkscape:export-xdpi="96"
   inkscape:export-ydpi="96">
  <defs
     id="defs17427" />
  <sodipodi:namedview
     id="base"
     pagecolor="#ffffff"
     bordercolor="#666666"
     borderopacity="1.0"
     inkscape:pageopacity="0.0"
     inkscape:pageshadow="2"
     inkscape:zoom="1.4"
     inkscape:cx="-115.92453"
     inkscape:cy="122.34851"
     inkscape:document-units="mm"
     inkscape:current-layer="layer1"
     showgrid="false"
     units="px"
     inkscape:snap-bbox="true"
     inkscape:snap-bbox-edge-midpoints="true"
     inkscape:bbox-nodes="true"
     inkscape:bbox-paths="true"
     inkscape:snap-object-midpoints="true"
     inkscape:snap-page="true"
     inkscape:window-width="1863"
     inkscape:window-height="1025"
     inkscape:window-x="57"
     inkscape:window-y="27"
     inkscape:window-maximized="1" />
  <metadata
     id="metadata17430">
    <rdf:RDF>
      <cc:Work
         rdf:about="">
        <dc:format>image/svg+xml</dc:format>
        <dc:type
           rdf:resource="http://purl.org/dc/dcmitype/StillImage" />
        <dc:title />
      </cc:Work>
    </rdf:RDF>
  </metadata>
  <g
     inkscape:label="Layer 1"
     inkscape:groupmode="layer"
     id="layer1"
     transform="translate(0,-255.98957)">
    <g
       transform="matrix(12.929293,0,0,12.929293,-2931.9468,-5368.7294)"
       id="g6479"
       style="fill:#000000;fill-opacity:0.51456311">
      <g
         id="use6477"
         transform="matrix(0.26458333,0,0,0.26458333,228.4151,437.4765)"
         style="fill:#000000;fill-opacity:0.51456311">
        <path
           inkscape:connector-curvature="0"
           id="path17988"
           d="M 5.15625,-0.1875 C 5.019531,-0.988281 4.785156,-1.820312 4.453125,-2.6875 H 4.4375 c -0.054688,0.023438 -0.125,0.054688 -0.21875,0.09375 -0.09375,0.03125 -0.265625,0.117188 -0.515625,0.25 -0.242187,0.125 -0.46875,0.261719 -0.6875,0.40625 -0.210937,0.148438 -0.429687,0.339844 -0.65625,0.578125 C 2.128906,-1.128906 1.957031,-0.882812 1.84375,-0.625 L 1.765625,-0.671875 c 0.613281,0.5 1.316406,0.75 2.109375,0.75 0.4375,0 0.863281,-0.0859375 1.28125,-0.265625 z M 4.234375,-3.234375 c -0.074219,-0.164063 -0.164063,-0.351563 -0.265625,-0.5625 -1.054688,0.3125 -2.1875,0.46875 -3.40625,0.46875 0,0.023437 0,0.058594 0,0.109375 0,0.417969 0.070312,0.8125 0.21875,1.1875 0.15625,0.375 0.363281,0.714844 0.625,1.015625 0.164062,-0.300781 0.375,-0.582031 0.625,-0.84375 0.25,-0.257813 0.488281,-0.46875 0.71875,-0.625 0.226562,-0.15625 0.445312,-0.289063 0.65625,-0.40625 0.207031,-0.113281 0.375,-0.195313 0.5,-0.25 l 0.1875,-0.0625 c 0.019531,0 0.039062,-0.00391 0.0625,-0.015625 0.03125,-0.00781 0.054688,-0.015625 0.078125,-0.015625 z M 3.6875,-4.3125 C 3.28125,-5.019531 2.867188,-5.65625 2.453125,-6.21875 1.992188,-6 1.601562,-5.6875 1.28125,-5.28125 c -0.324219,0.40625 -0.539062,0.867188 -0.640625,1.375 1.007813,0 2.023437,-0.132812 3.046875,-0.40625 z m 3.453125,1.609375 c -0.710937,-0.195313 -1.398437,-0.242187 -2.0625,-0.140625 0.289063,0.804688 0.503906,1.589844 0.640625,2.359375 0.375,-0.25 0.6875,-0.566406 0.9375,-0.953125 0.25,-0.382812 0.410156,-0.804688 0.484375,-1.265625 z M 3.078125,-6.4375 c 0,0 -0.00781,0 -0.015625,0 0.00781,0 0.015625,0 0.015625,0 z m 2.96875,0.734375 C 5.429688,-6.253906 4.707031,-6.53125 3.875,-6.53125 c -0.261719,0 -0.523438,0.03125 -0.78125,0.09375 0.4375,0.574219 0.847656,1.214844 1.234375,1.921875 0.226563,-0.082031 0.445313,-0.179687 0.65625,-0.296875 0.207031,-0.113281 0.367187,-0.21875 0.484375,-0.3125 0.125,-0.09375 0.234375,-0.1875 0.328125,-0.28125 0.101563,-0.101562 0.164063,-0.171875 0.1875,-0.203125 0.03125,-0.039063 0.050781,-0.070313 0.0625,-0.09375 z m 1.125,2.4375 c -0.011719,-0.78125 -0.261719,-1.46875 -0.75,-2.0625 -0.03125,0.042969 -0.0625,0.085937 -0.09375,0.125 -0.03125,0.042969 -0.105469,0.121094 -0.21875,0.234375 C 5.992188,-4.863281 5.875,-4.765625 5.75,-4.671875 5.625,-4.578125 5.453125,-4.46875 5.234375,-4.34375 c -0.210937,0.125 -0.429687,0.234375 -0.65625,0.328125 0.082031,0.179687 0.15625,0.339844 0.21875,0.484375 0.00781,0.011719 0.019531,0.039062 0.03125,0.078125 0.019531,0.042969 0.035156,0.074219 0.046875,0.09375 0.125,-0.019531 0.25,-0.03125 0.375,-0.03125 0.125,-0.00781 0.242188,-0.015625 0.359375,-0.015625 0.125,0 0.242187,0.00781 0.359375,0.015625 0.113281,0 0.21875,0.00781 0.3125,0.015625 0.101562,0 0.195312,0.00781 0.28125,0.015625 0.09375,0.011719 0.175781,0.023437 0.25,0.03125 0.070312,0.011719 0.132812,0.023437 0.1875,0.03125 0.050781,0.011719 0.09375,0.023437 0.125,0.03125 z m 0.046875,-1.90625 c 0.34375,0.59375 0.515625,1.246094 0.515625,1.953125 0,0.699219 -0.171875,1.34375 -0.515625,1.9375 C 6.875,-0.6875 6.40625,-0.21875 5.8125,0.125 5.21875,0.46875 4.566406,0.640625 3.859375,0.640625 3.160156,0.640625 2.515625,0.46875 1.921875,0.125 1.328125,-0.21875 0.859375,-0.6875 0.515625,-1.28125 0.171875,-1.875 0,-2.519531 0,-3.21875 c 0,-0.707031 0.171875,-1.359375 0.515625,-1.953125 0.34375,-0.59375 0.8125,-1.0625 1.40625,-1.40625 0.59375,-0.34375 1.238281,-0.515625 1.9375,-0.515625 0.707031,0 1.359375,0.171875 1.953125,0.515625 0.59375,0.34375 1.0625,0.8125 1.40625,1.40625 z m 0,0"
           style="fill:#000000;fill-opacity:0.51456311;stroke:none" />
      </g>
    </g>
  </g>
</svg>
