<?xml version="1.0" encoding="UTF-8" standalone="no"?>
<!-- Created with Inkscape (http://www.inkscape.org/) -->

<svg
   xmlns:dc="http://purl.org/dc/elements/1.1/"
   xmlns:cc="http://creativecommons.org/ns#"
   xmlns:rdf="http://www.w3.org/1999/02/22-rdf-syntax-ns#"
   xmlns:svg="http://www.w3.org/2000/svg"
   xmlns="http://www.w3.org/2000/svg"
   xmlns:sodipodi="http://sodipodi.sourceforge.net/DTD/sodipodi-0.dtd"
   xmlns:inkscape="http://www.inkscape.org/namespaces/inkscape"
   width="261"
   height="155"
   viewBox="0 0 69.056248 41.010418"
   version="1.1"
   id="svg17433"
   inkscape:version="0.92.3 (2405546, 2018-03-11)"
   sodipodi:docname="placeholder-group.svg"
   inkscape:export-filename="/home/paul/repos/DCOR/ckanext-dcor_theme/ckanext/dcor_theme/public/base/images/placeholder-group.png"
   inkscape:export-xdpi="96"
   inkscape:export-ydpi="96">
  <defs
     id="defs17427" />
  <sodipodi:namedview
     id="base"
     pagecolor="#ffffff"
     bordercolor="#666666"
     borderopacity="1.0"
     inkscape:pageopacity="0.0"
     inkscape:pageshadow="2"
     inkscape:zoom="0.98994949"
     inkscape:cx="99.397474"
     inkscape:cy="81.580932"
     inkscape:document-units="mm"
     inkscape:current-layer="layer1"
     showgrid="false"
     units="px"
     inkscape:snap-bbox="true"
     inkscape:snap-bbox-edge-midpoints="true"
     inkscape:bbox-nodes="true"
     inkscape:bbox-paths="true"
     inkscape:snap-object-midpoints="true"
     inkscape:snap-page="true"
     inkscape:window-width="1863"
     inkscape:window-height="1025"
     inkscape:window-x="57"
     inkscape:window-y="27"
     inkscape:window-maximized="1" />
  <metadata
     id="metadata17430">
    <rdf:RDF>
      <cc:Work
         rdf:about="">
        <dc:format>image/svg+xml</dc:format>
        <dc:type
           rdf:resource="http://purl.org/dc/dcmitype/StillImage" />
        <dc:title />
      </cc:Work>
    </rdf:RDF>
  </metadata>
  <g
     inkscape:label="Layer 1"
     inkscape:groupmode="layer"
     id="layer1"
     transform="translate(0,-255.98957)">
    <g
       transform="matrix(11.918063,0,0,11.918063,-4617.9725,-8591.9069)"
       id="g7380"
       style="fill:#000000;fill-opacity:0.51372549">
      <g
         id="use7378"
         transform="matrix(0.26458333,0,0,0.26458333,389.48816,745.11274)"
         style="fill:#000000;fill-opacity:0.51372549">
        <path
           inkscape:connector-curvature="0"
           id="path825"
           d="m 8.390625,-2.203125 c 0,0.273437 -0.078125,0.5 -0.234375,0.6875 C 8.007812,-1.335938 7.804688,-1.25 7.546875,-1.25 7.398438,-1.25 7.265625,-1.28125 7.140625,-1.34375 7.023438,-1.40625 6.925781,-1.46875 6.84375,-1.53125 6.769531,-1.601562 6.675781,-1.664062 6.5625,-1.71875 6.445312,-1.78125 6.328125,-1.8125 6.203125,-1.8125 c -0.367187,0 -0.546875,0.210938 -0.546875,0.625 0,0.125 0.023438,0.320312 0.078125,0.578125 0.050781,0.25 0.078125,0.445313 0.078125,0.578125 V 0 C 5.738281,0 5.679688,0 5.640625,0 5.523438,0.0078125 5.359375,0.0234375 5.140625,0.046875 4.929688,0.078125 4.738281,0.101562 4.5625,0.125 4.394531,0.144531 4.234375,0.15625 4.078125,0.15625 3.867188,0.15625 3.691406,0.109375 3.546875,0.015625 3.410156,-0.0664062 3.34375,-0.207031 3.34375,-0.40625 c 0,-0.125 0.023438,-0.242188 0.078125,-0.359375 C 3.484375,-0.878906 3.550781,-0.972656 3.625,-1.046875 3.695312,-1.117188 3.757812,-1.21875 3.8125,-1.34375 3.875,-1.46875 3.90625,-1.597656 3.90625,-1.734375 3.90625,-1.992188 3.8125,-2.195312 3.625,-2.34375 3.445312,-2.5 3.222656,-2.578125 2.953125,-2.578125 2.671875,-2.578125 2.429688,-2.5 2.234375,-2.34375 2.035156,-2.195312 1.9375,-1.984375 1.9375,-1.703125 c 0,0.148437 0.023438,0.289063 0.078125,0.421875 0.050781,0.125 0.101563,0.230469 0.15625,0.3125 0.0625,0.085938 0.117187,0.179688 0.171875,0.28125 0.050781,0.09375 0.078125,0.179688 0.078125,0.25 C 2.421875,-0.289062 2.34375,-0.144531 2.1875,0 2.0625,0.125 1.867188,0.1875 1.609375,0.1875 1.285156,0.1875 0.875,0.144531 0.375,0.0625 0.34375,0.0507812 0.296875,0.0390625 0.234375,0.03125 0.171875,0.03125 0.125,0.0234375 0.09375,0.015625 H 0.03125 C 0.0195312,0.015625 0.015625,0.0078125 0.015625,0 0.00390625,0 0,0 0,0 v -5.15625 c 0.0078125,0 0.0390625,0.00781 0.09375,0.015625 0.050781,0.011719 0.109375,0.023437 0.171875,0.03125 0.0625,0 0.097656,0.00781 0.109375,0.015625 0.5,0.074219 0.910156,0.109375 1.234375,0.109375 0.257813,0 0.453125,-0.054687 0.578125,-0.171875 0.15625,-0.144531 0.234375,-0.296875 0.234375,-0.453125 0,-0.070313 -0.027344,-0.15625 -0.078125,-0.25 C 2.289062,-5.953125 2.234375,-6.039062 2.171875,-6.125 2.117188,-6.207031 2.066406,-6.316406 2.015625,-6.453125 1.960938,-6.585938 1.9375,-6.726562 1.9375,-6.875 c 0,-0.269531 0.097656,-0.476562 0.296875,-0.625 0.195313,-0.15625 0.4375,-0.234375 0.71875,-0.234375 0.269531,0 0.492187,0.074219 0.671875,0.21875 0.1875,0.148437 0.28125,0.355469 0.28125,0.625 C 3.90625,-6.753906 3.875,-6.625 3.8125,-6.5 3.757812,-6.375 3.695312,-6.273438 3.625,-6.203125 3.550781,-6.128906 3.484375,-6.035156 3.421875,-5.921875 3.367188,-5.804688 3.34375,-5.6875 3.34375,-5.5625 c 0,0.1875 0.066406,0.328125 0.203125,0.421875 0.144531,0.085937 0.320313,0.125 0.53125,0.125 0.21875,0 0.519531,-0.019531 0.90625,-0.0625 0.382813,-0.050781 0.660156,-0.082031 0.828125,-0.09375 v 0.015625 c -0.011719,0 -0.023438,0.027344 -0.03125,0.078125 0,0.054687 -0.00781,0.109375 -0.015625,0.171875 C 5.753906,-4.84375 5.75,-4.804688 5.75,-4.796875 5.664062,-4.285156 5.625,-3.875 5.625,-3.5625 c 0,0.273438 0.054688,0.46875 0.171875,0.59375 0.144531,0.15625 0.296875,0.234375 0.453125,0.234375 0.070312,0 0.15625,-0.023437 0.25,-0.078125 0.09375,-0.050781 0.179688,-0.109375 0.265625,-0.171875 0.082031,-0.0625 0.191406,-0.113281 0.328125,-0.15625 0.132812,-0.050781 0.273438,-0.078125 0.421875,-0.078125 0.269531,0 0.484375,0.101562 0.640625,0.296875 0.15625,0.199219 0.234375,0.4375 0.234375,0.71875 z m 0,0"
           style="fill:#000000;fill-opacity:0.51372549;stroke:none" />
      </g>
    </g>
  </g>
</svg>
