<?xml version="1.0" encoding="UTF-8" standalone="no"?>
<!-- Created with Inkscape (http://www.inkscape.org/) -->

<svg
   xmlns:dc="http://purl.org/dc/elements/1.1/"
   xmlns:cc="http://creativecommons.org/ns#"
   xmlns:rdf="http://www.w3.org/1999/02/22-rdf-syntax-ns#"
   xmlns:svg="http://www.w3.org/2000/svg"
   xmlns="http://www.w3.org/2000/svg"
   xmlns:sodipodi="http://sodipodi.sourceforge.net/DTD/sodipodi-0.dtd"
   xmlns:inkscape="http://www.inkscape.org/namespaces/inkscape"
   width="261"
   height="155"
   viewBox="0 0 69.056248 41.010418"
   version="1.1"
   id="svg17433"
   inkscape:version="0.92.3 (2405546, 2018-03-11)"
   sodipodi:docname="placeholder-organization.svg"
   inkscape:export-filename="/home/paul/repos/DCOR/ckanext-dcor_theme/ckanext/dcor_theme/public/base/images/placeholder-organization.png"
   inkscape:export-xdpi="96"
   inkscape:export-ydpi="96">
  <defs
     id="defs17427" />
  <sodipodi:namedview
     id="base"
     pagecolor="#ffffff"
     bordercolor="#666666"
     borderopacity="1.0"
     inkscape:pageopacity="0.0"
     inkscape:pageshadow="2"
     inkscape:zoom="1.979899"
     inkscape:cx="71.884496"
     inkscape:cy="149.05451"
     inkscape:document-units="mm"
     inkscape:current-layer="layer1"
     showgrid="false"
     units="px"
     inkscape:snap-bbox="true"
     inkscape:snap-bbox-edge-midpoints="true"
     inkscape:bbox-nodes="true"
     inkscape:bbox-paths="true"
     inkscape:snap-object-midpoints="true"
     inkscape:snap-page="true"
     inkscape:window-width="1863"
     inkscape:window-height="1025"
     inkscape:window-x="57"
     inkscape:window-y="27"
     inkscape:window-maximized="1" />
  <metadata
     id="metadata17430">
    <rdf:RDF>
      <cc:Work
         rdf:about="">
        <dc:format>image/svg+xml</dc:format>
        <dc:type
           rdf:resource="http://purl.org/dc/dcmitype/StillImage" />
        <dc:title />
      </cc:Work>
    </rdf:RDF>
  </metadata>
  <g
     inkscape:label="Layer 1"
     inkscape:groupmode="layer"
     id="layer1"
     transform="translate(0,-255.98957)">
    <g
       transform="matrix(12.929293,0,0,12.929293,-2931.9468,-5368.7294)"
       id="g6479"
       style="fill:#000000;fill-opacity:0.51456311">
      <g
         id="use6477"
         transform="matrix(0.26458333,0,0,0.26458333,228.4151,437.4765)"
         style="fill:#000000;fill-opacity:0.51456311">
        <path
           inkscape:connector-curvature="0"
           id="path17988"
           d="m 7.21875,-5.171875 c 0.34375,0.59375 0.515625,1.246094 0.515625,1.953125 0,0.699219 -0.171875,1.34375 -0.515625,1.9375 C 6.875,-0.6875 6.40625,-0.21875 5.8125,0.125 5.21875,0.46875 4.566406,0.640625 3.859375,0.640625 3.160156,0.640625 2.515625,0.46875 1.921875,0.125 1.328125,-0.21875 0.859375,-0.6875 0.515625,-1.28125 0.171875,-1.875 0,-2.519531 0,-3.21875 c 0,-0.707031 0.171875,-1.359375 0.515625,-1.953125 0.34375,-0.59375 0.8125,-1.0625 1.40625,-1.40625 0.59375,-0.34375 1.238281,-0.515625 1.9375,-0.515625 0.707031,0 1.359375,0.171875 1.953125,0.515625 0.59375,0.34375 1.0625,0.8125 1.40625,1.40625 z"
           style="fill:#000000;fill-opacity:0.51456311;stroke:none"
           sodipodi:nodetypes="sssssssssssss" />
      </g>
    </g>
  </g>
</svg>
